<mxfile host="Electron" agent="Mozilla/5.0 (Windows NT 10.0; Win64; x64) AppleWebKit/537.36 (KHTML, like Gecko) draw.io/26.2.2 Chrome/134.0.6998.178 Electron/35.1.2 Safari/537.36" version="26.2.2">
  <diagram name="PÃ¡gina-1" id="1b-hdF2nXv2eN2WPswJz">
    <mxGraphModel dx="858" dy="513" grid="1" gridSize="10" guides="1" tooltips="1" connect="1" arrows="1" fold="1" page="1" pageScale="1" pageWidth="827" pageHeight="1169" math="0" shadow="0">
      <root>
        <mxCell id="0" />
        <mxCell id="1" parent="0" />
        <mxCell id="S0YLtl1igj_gyt4eCJk1-4" value="" style="edgeStyle=orthogonalEdgeStyle;rounded=0;orthogonalLoop=1;jettySize=auto;html=1;" edge="1" parent="1" source="S0YLtl1igj_gyt4eCJk1-1" target="S0YLtl1igj_gyt4eCJk1-3">
          <mxGeometry relative="1" as="geometry" />
        </mxCell>
        <mxCell id="S0YLtl1igj_gyt4eCJk1-1" value="Multiplos de 3 comprendidos del 1-20" style="ellipse;whiteSpace=wrap;html=1;" vertex="1" parent="1">
          <mxGeometry x="330" y="60" width="150" height="80" as="geometry" />
        </mxCell>
        <mxCell id="S0YLtl1igj_gyt4eCJk1-6" value="" style="edgeStyle=orthogonalEdgeStyle;rounded=0;orthogonalLoop=1;jettySize=auto;html=1;" edge="1" parent="1" source="S0YLtl1igj_gyt4eCJk1-3" target="S0YLtl1igj_gyt4eCJk1-5">
          <mxGeometry relative="1" as="geometry" />
        </mxCell>
        <mxCell id="S0YLtl1igj_gyt4eCJk1-3" value="printf(&quot;Este programa muestra los multiplos del 3 comprendidos de 1-20!!!!\n\n&quot;);" style="shape=document;whiteSpace=wrap;html=1;boundedLbl=1;" vertex="1" parent="1">
          <mxGeometry x="167.5" y="190" width="475" height="50" as="geometry" />
        </mxCell>
        <mxCell id="S0YLtl1igj_gyt4eCJk1-8" value="" style="edgeStyle=orthogonalEdgeStyle;rounded=0;orthogonalLoop=1;jettySize=auto;html=1;" edge="1" parent="1" source="S0YLtl1igj_gyt4eCJk1-5" target="S0YLtl1igj_gyt4eCJk1-7">
          <mxGeometry relative="1" as="geometry" />
        </mxCell>
        <mxCell id="S0YLtl1igj_gyt4eCJk1-15" style="edgeStyle=orthogonalEdgeStyle;rounded=0;orthogonalLoop=1;jettySize=auto;html=1;entryX=1;entryY=0.5;entryDx=0;entryDy=0;" edge="1" parent="1" source="S0YLtl1igj_gyt4eCJk1-5" target="S0YLtl1igj_gyt4eCJk1-14">
          <mxGeometry relative="1" as="geometry">
            <Array as="points">
              <mxPoint x="570" y="338" />
              <mxPoint x="570" y="780" />
            </Array>
          </mxGeometry>
        </mxCell>
        <mxCell id="S0YLtl1igj_gyt4eCJk1-5" value="for&lt;div&gt;Desde i = 0&lt;/div&gt;&lt;div&gt;hasta i &amp;lt; 20&lt;/div&gt;&lt;div&gt;Incremento 1&lt;/div&gt;" style="rhombus;whiteSpace=wrap;html=1;" vertex="1" parent="1">
          <mxGeometry x="323.75" y="290" width="162.5" height="95" as="geometry" />
        </mxCell>
        <mxCell id="S0YLtl1igj_gyt4eCJk1-10" value="" style="edgeStyle=orthogonalEdgeStyle;rounded=0;orthogonalLoop=1;jettySize=auto;html=1;" edge="1" parent="1" source="S0YLtl1igj_gyt4eCJk1-7" target="S0YLtl1igj_gyt4eCJk1-9">
          <mxGeometry relative="1" as="geometry" />
        </mxCell>
        <mxCell id="S0YLtl1igj_gyt4eCJk1-7" value="if&lt;div&gt;i % 3 == 0 &amp;amp;&amp;amp; i != 0&lt;/div&gt;" style="rhombus;whiteSpace=wrap;html=1;" vertex="1" parent="1">
          <mxGeometry x="332.5" y="450" width="145" height="80" as="geometry" />
        </mxCell>
        <mxCell id="S0YLtl1igj_gyt4eCJk1-12" value="" style="edgeStyle=orthogonalEdgeStyle;rounded=0;orthogonalLoop=1;jettySize=auto;html=1;" edge="1" parent="1" source="S0YLtl1igj_gyt4eCJk1-9" target="S0YLtl1igj_gyt4eCJk1-11">
          <mxGeometry relative="1" as="geometry" />
        </mxCell>
        <mxCell id="S0YLtl1igj_gyt4eCJk1-9" value="si" style="text;html=1;align=center;verticalAlign=middle;resizable=0;points=[];autosize=1;strokeColor=none;fillColor=none;" vertex="1" parent="1">
          <mxGeometry x="390" y="555" width="30" height="30" as="geometry" />
        </mxCell>
        <mxCell id="S0YLtl1igj_gyt4eCJk1-13" style="edgeStyle=orthogonalEdgeStyle;rounded=0;orthogonalLoop=1;jettySize=auto;html=1;entryX=0;entryY=0.5;entryDx=0;entryDy=0;" edge="1" parent="1" source="S0YLtl1igj_gyt4eCJk1-11" target="S0YLtl1igj_gyt4eCJk1-5">
          <mxGeometry relative="1" as="geometry">
            <Array as="points">
              <mxPoint x="250" y="635" />
              <mxPoint x="250" y="338" />
            </Array>
          </mxGeometry>
        </mxCell>
        <mxCell id="S0YLtl1igj_gyt4eCJk1-11" value="printf(&quot;Numero multiplo de 3 es: %i\n&quot;, i);" style="shape=document;whiteSpace=wrap;html=1;boundedLbl=1;" vertex="1" parent="1">
          <mxGeometry x="287.5" y="610" width="235" height="50" as="geometry" />
        </mxCell>
        <mxCell id="S0YLtl1igj_gyt4eCJk1-14" value="Fin de la ejecucion" style="ellipse;whiteSpace=wrap;html=1;" vertex="1" parent="1">
          <mxGeometry x="345" y="740" width="120" height="80" as="geometry" />
        </mxCell>
      </root>
    </mxGraphModel>
  </diagram>
</mxfile>
